<svg xmlns="http://www.w3.org/2000/svg" viewBox="0 0 48 48" fill="none" stroke="#47BBA8" stroke-width="1.5" stroke-linecap="round" stroke-linejoin="round">
  <path d="M16 21 C16 17 19 14 24 14 C29 14 32 17 32 21 V38 C32 40 30.5 41.5 28.5 41.5 H19.5 C17.5 41.5 16 40 16 38 V21Z" fill="none"/>
  <path d="M19 24 H29" fill="none"/>
  <path d="M18 36 H30" fill="none"/>
  <circle cx="24" cy="18" r="1.4" fill="none"/>
  <path d="M20 10 C18.5 8 19.5 6.5 21 5" fill="none"/>
  <path d="M24 10 C22.5 8 23.5 6.5 25 5" fill="none"/>
  <path d="M28 10 C26.5 8 27.5 6.5 29 5" fill="none"/>
  <line x1="14" y1="42.5" x2="34" y2="42.5" fill="none"/>
</svg>
