<svg xmlns="http://www.w3.org/2000/svg" viewBox="0 0 48 48" fill="none" stroke="#47BBA8" stroke-width="1.5" stroke-linecap="round" stroke-linejoin="round">
  <path d="M21 7 H27 C29.5 7 31.5 9 31.5 11.5 V19 C31.5 23 28.2 26 24 26 C19.8 26 16.5 23 16.5 19 V11.5 C16.5 9 18.5 7 21 7Z" fill="none"/>
  <line x1="20.5" y1="11" x2="20.5" y2="21" fill="none"/>
  <line x1="24" y1="10" x2="24" y2="22" fill="none"/>
  <line x1="27.5" y1="11" x2="27.5" y2="21" fill="none"/>
  <path d="M24 26 L24 36" fill="none"/>
  <path d="M19.5 41 H28.5" fill="none"/>
  <path d="M20 36 H28 C29.2 36 30 36.8 30 38 V39 C30 40.2 29.2 41 28 41 H20 C18.8 41 18 40.2 18 39 V38 C18 36.8 18.8 36 20 36Z" fill="none"/>
  <circle cx="24" cy="39" r="0.8" fill="none"/>
</svg>
