<svg xmlns="http://www.w3.org/2000/svg" viewBox="0 0 48 48" fill="none" stroke="#47BBA8" stroke-width="1.5" stroke-linecap="round" stroke-linejoin="round">
  <path d="M11 22 H37 L34 36 C33.6 38 32 39.5 30 39.5 H18 C16 39.5 14.4 38 14 36 L11 22Z" fill="none"/>
  <path d="M18 22 V14 C18 11.8 19.8 10 22 10 H25" fill="none"/>
  <path d="M25 10 C29 10 31 12 31 15 H25" fill="none"/>
  <line x1="15" y1="14" x2="21" y2="14" fill="none"/>
  <line x1="31" y1="17.5" x2="31" y2="19.5" fill="none"/>
  <path d="M20 29 L18 32" fill="none"/>
  <path d="M25 28 L23 31" fill="none"/>
  <path d="M30 29 L28 32" fill="none"/>
  <circle cx="34.5" cy="18.5" r="1.2" fill="none"/>
</svg>
